<?xml version="1.0" standalone="no"?><!DOCTYPE svg PUBLIC "-//W3C//DTD SVG 1.1//EN" "http://www.w3.org/Graphics/SVG/1.1/DTD/svg11.dtd"><svg t="1736311735695" class="icon" viewBox="0 0 1024 1024" version="1.1" xmlns="http://www.w3.org/2000/svg" p-id="1417" xmlns:xlink="http://www.w3.org/1999/xlink" width="200" height="200"><path d="M941.393453 941.219375V165.55101H83.806316v775.668365h857.587137zM959.825176 0.006827c17.066411-0.255996 33.535497 6.570568 45.31132 19.029047A62.292399 62.292399 0 0 1 1023.99488 64.688523v894.621247c0 17.919731-6.22924 33.108837-18.773052 45.652649a61.609743 61.609743 0 0 1-45.396652 19.029048H64.094612a61.353746 61.353746 0 0 1-45.225988-18.858384 62.719059 62.719059 0 0 1-18.773052-45.823313V64.688523C0.01024 46.768792 6.154148 31.579686 18.612628 19.035874A61.52441 61.52441 0 0 1 64.094612 0.006827h895.730564zM364.804768 478.122321a34.47415 34.47415 0 0 1 8.874534 24.4903 30.036883 30.036883 0 0 1-8.874534 20.821021L245.766554 642.130528l119.123546 118.611554a30.975535 30.975535 0 0 1 9.386526 21.333014 30.378211 30.378211 0 0 1-9.386526 23.978307 42.495363 42.495363 0 0 1-27.818249 9.215861 31.231532 31.231532 0 0 1-21.162349-9.215861L172.124992 663.036881a28.415574 28.415574 0 0 1-9.13053-22.186334 29.695555 29.695555 0 0 1 9.13053-19.626372l143.699177-143.101854a32.42618 32.42618 0 0 1 22.698327-8.703869 37.375439 37.375439 0 0 1 26.282272 8.703869z m164.690863 13.994457a36.266123 36.266123 0 0 1 18.943716-19.626372 32.340848 32.340848 0 0 1 26.623601-1.365313 35.839462 35.839462 0 0 1 19.797036 18.773052c4.266603 9.13053 4.693263 17.919731 1.279981 26.538268l-105.12909 272.209251a36.266123 36.266123 0 0 1-18.773052 19.626372 32.596844 32.596844 0 0 1-26.794264 1.279981 36.266123 36.266123 0 0 1-19.626373-18.773052 31.658192 31.658192 0 0 1-1.365313-26.538269l105.12909-272.123918z m331.515027 154.280353c0.597324 9.13053-2.559962 17.066411-9.215861 23.636978L711.764897 809.552017a32.511512 32.511512 0 0 1-25.855612 9.130529 34.132821 34.132821 0 0 1-23.295651-9.130529 39.252745 39.252745 0 0 1-7.765217-23.978307c0-9.045198 2.559962-16.21309 7.765217-21.333014l119.123547-118.696886-119.123547-114.856944c-15.871762-15.018441-18.175727-30.207547-6.911896-45.567316 5.375919-7.423889 13.738461-11.093167 25.087624-10.922503 11.093167 0.085332 20.223697 3.75461 27.306257 10.922503L851.794797 628.050739c5.717248 3.75461 8.789201 9.813186 9.215861 18.346392zM197.980604 327.681911h279.718471A34.815478 34.815478 0 0 0 512.00256 292.69577a34.815478 34.815478 0 0 0-34.303485-34.986142H197.980604a34.644814 34.644814 0 0 0-30.378211 17.322407 35.242138 35.242138 0 0 0 0 35.242138c6.314572 10.837171 17.919731 17.493071 30.378211 17.407738z" fill="#29CC52" p-id="1418"></path></svg>